# xmcd
#
# Track frame offsets: 
#        150
#        10642
#        23711
#        36075
#        50567
#        63775
#        78370
#        94812
#        103851
#        118688
#        135851
#        149846
#        162548
#        177323
#
# Disc length: 2592 seconds
#
# Revision: 0
# Processed by: cddbd v1.5.2PL0 Copyright (c) Steve Scherf et al.
# Submitted via: ExactAudioCopy v0.95b4
#
DISCID=b70a1e0e
DTITLE=David Brookings - Glass Half Full
DYEAR=2009
DGENRE=Blues
TTITLE0=Dont wake me up
TTITLE1=I wish I could be with you
TTITLE2=This time is for real
TTITLE3=Love goes down the train
TTITLE4=Hazel
TTITLE5=One lonely word
TTITLE6=We never ever spoke again
TTITLE7=Glass half full
TTITLE8=Flashlight love
TTITLE9=Still not crazy yet
TTITLE10=Love and death in Richmond
TTITLE11=Destiny
TTITLE12=The scorpio heart never forgets
TTITLE13=Gettin older
EXTD=
EXTT0=
EXTT1=
EXTT2=
EXTT3=
EXTT4=
EXTT5=
EXTT6=
EXTT7=
EXTT8=
EXTT9=
EXTT10=
EXTT11=
EXTT12=
EXTT13=
PLAYORDER=
